<svg width="22" height="22" viewBox="0 0 22 22" fill="none" xmlns="http://www.w3.org/2000/svg">
<path d="M2.31899 18.0125L3.54732 18.5258V10.2483L1.31982 15.62C1.13979 16.0702 1.1436 16.5731 1.33045 17.0205C1.51729 17.4679 1.87225 17.8241 2.31899 18.0125ZM20.194 14.6208L15.6473 3.64834C15.4621 3.20137 15.1072 2.84611 14.6604 2.66052C14.2136 2.47492 13.7114 2.47414 13.264 2.65834L6.50816 5.45418C6.18074 5.59065 5.89995 5.81917 5.69982 6.11204C5.49969 6.40491 5.38882 6.74955 5.38066 7.10418C5.37197 7.35576 5.41892 7.60616 5.51816 7.83751L10.0648 18.81C10.2032 19.1417 10.4359 19.4254 10.7342 19.6258C11.0324 19.8263 11.383 19.9347 11.7423 19.9375C11.9842 19.9371 12.2238 19.8904 12.4482 19.8L19.1948 17.0042C19.6433 16.8205 20.0005 16.4663 20.1878 16.0194C20.3752 15.5724 20.3774 15.0694 20.194 14.6208ZM7.22316 8.02084C7.04186 8.02084 6.86463 7.96708 6.71388 7.86636C6.56314 7.76563 6.44565 7.62247 6.37627 7.45497C6.30689 7.28747 6.28873 7.10316 6.3241 6.92534C6.35947 6.74753 6.44678 6.58419 6.57498 6.456C6.70317 6.3278 6.86651 6.24049 7.04432 6.20512C7.22214 6.16975 7.40645 6.18791 7.57395 6.25729C7.74145 6.32667 7.88461 6.44416 7.98534 6.5949C8.08606 6.74565 8.13982 6.92288 8.13982 7.10418C8.13982 7.34729 8.04325 7.58045 7.87134 7.75236C7.69943 7.92427 7.46627 8.02084 7.22316 8.02084ZM5.38982 18.1042C5.39127 18.59 5.58489 19.0554 5.9284 19.3989C6.2719 19.7424 6.73737 19.9361 7.22316 19.9375H8.55232L5.38982 12.2925V18.1042Z" fill="#9AA6AD"/>
</svg>
