<svg width="22" height="22" viewBox="0 0 22 22" fill="none" xmlns="http://www.w3.org/2000/svg">
<path d="M11.0003 5.50016C12.0128 5.50016 12.8337 4.67935 12.8337 3.66683C12.8337 2.65431 12.0128 1.8335 11.0003 1.8335C9.9878 1.8335 9.16699 2.65431 9.16699 3.66683C9.16699 4.67935 9.9878 5.50016 11.0003 5.50016Z" fill="#9AA6AD"/>
<path d="M14.5662 7.43433C14.3011 7.11775 13.9703 6.86273 13.5967 6.68701C13.2231 6.51129 12.8157 6.41909 12.4028 6.41683H10.0745C8.86147 6.41127 7.69986 5.92631 6.84298 5.06771C5.98609 4.20911 5.50346 3.04652 5.50033 1.8335H3.66699C3.67015 3.21475 4.11742 4.55837 4.94273 5.66594C5.76805 6.77351 6.92766 7.58632 8.25033 7.98433V20.1668H10.0837V14.6668H11.917V20.1668H13.7503V9.21266L17.3712 12.8335L18.6637 11.541L14.5662 7.43433Z" fill="#9AA6AD"/>
</svg>
