<svg width="341" height="48" viewBox="0 0 341 48" fill="none" xmlns="http://www.w3.org/2000/svg">
<rect x="72" width="196" height="48" rx="8" fill="#D9D9D9"/>
<path d="M128.924 28H130.828V18.2H128.924V28ZM132.6 28H134.364V24.906C134.364 23.324 134.994 22.4 136.072 22.4C136.898 22.4 137.416 22.974 137.416 23.8V28H139.18V23.38C139.18 21.84 138.144 20.832 136.604 20.832C135.61 20.832 134.812 21.322 134.364 22.008V20.944H132.6V28ZM141.767 19.866C142.411 19.866 142.887 19.39 142.887 18.774C142.887 18.172 142.411 17.696 141.767 17.696C141.137 17.696 140.675 18.172 140.675 18.774C140.675 19.39 141.137 19.866 141.767 19.866ZM140.885 28H142.649V20.944H140.885V28ZM147.564 28.112C149.342 28.112 150.616 27.216 150.882 25.732L149.16 25.382C148.992 26.138 148.446 26.586 147.62 26.586C146.528 26.586 145.814 25.76 145.814 24.472C145.814 23.184 146.528 22.358 147.62 22.358C148.446 22.358 149.034 22.862 149.16 23.604L150.882 23.268C150.644 21.77 149.37 20.832 147.564 20.832C145.45 20.832 143.98 22.316 143.98 24.472C143.98 26.628 145.45 28.112 147.564 28.112ZM153.088 19.866C153.732 19.866 154.208 19.39 154.208 18.774C154.208 18.172 153.732 17.696 153.088 17.696C152.458 17.696 151.996 18.172 151.996 18.774C151.996 19.39 152.458 19.866 153.088 19.866ZM152.206 28H153.97V20.944H152.206V28ZM158.394 20.832C156.896 20.832 155.65 21.728 155.426 23.128L156.994 23.408C157.078 22.652 157.624 22.176 158.394 22.176C159.248 22.176 159.794 22.666 159.794 23.464V23.534L158.478 23.66C156.378 23.884 155.328 24.626 155.328 26.012C155.328 27.216 156.294 28.112 157.68 28.112C158.548 28.112 159.402 27.664 159.794 26.978V28H161.502V23.702C161.502 21.826 160.242 20.832 158.394 20.832ZM158.072 26.81C157.428 26.81 157.036 26.446 157.036 25.956C157.036 25.452 157.512 25.06 158.45 24.948L159.794 24.794V24.948C159.794 25.984 159.164 26.81 158.072 26.81ZM167.775 22.652L167.887 20.944C167.677 20.874 167.369 20.832 167.117 20.832C166.263 20.832 165.339 21.434 164.989 22.232V20.944H163.225V28H164.989V25.41C164.989 23.31 165.885 22.484 166.879 22.484C167.187 22.484 167.523 22.54 167.775 22.652ZM174.74 28.112C176.364 28.112 177.456 27.132 177.456 25.914C177.456 23.03 173.578 24.024 173.578 22.778C173.578 22.372 173.956 22.134 174.516 22.134C175.09 22.134 175.706 22.484 175.902 23.156L177.33 22.554C177.022 21.532 175.86 20.832 174.488 20.832C172.948 20.832 171.982 21.7 171.982 22.806C171.982 25.48 175.832 24.612 175.832 25.942C175.832 26.39 175.398 26.74 174.74 26.74C173.858 26.74 173.312 26.152 173.102 25.438L171.66 26.026C172.01 27.062 173.032 28.112 174.74 28.112ZM185.352 24.234C185.352 22.596 184.19 20.832 181.81 20.832C179.472 20.832 178.324 22.638 178.324 24.472C178.324 26.306 179.57 28.112 181.908 28.112C183.56 28.112 184.792 27.328 185.184 25.998L183.532 25.55C183.35 26.236 182.762 26.628 181.936 26.628C180.928 26.628 180.242 25.998 180.088 24.934H185.324C185.338 24.794 185.352 24.486 185.352 24.234ZM180.13 23.646C180.326 22.694 180.942 22.176 181.81 22.176C182.832 22.176 183.378 22.806 183.462 23.646H180.13ZM189.082 28.112C190.706 28.112 191.798 27.132 191.798 25.914C191.798 23.03 187.92 24.024 187.92 22.778C187.92 22.372 188.298 22.134 188.858 22.134C189.432 22.134 190.048 22.484 190.244 23.156L191.672 22.554C191.364 21.532 190.202 20.832 188.83 20.832C187.29 20.832 186.324 21.7 186.324 22.806C186.324 25.48 190.174 24.612 190.174 25.942C190.174 26.39 189.74 26.74 189.082 26.74C188.2 26.74 187.654 26.152 187.444 25.438L186.002 26.026C186.352 27.062 187.374 28.112 189.082 28.112ZM193.953 19.866C194.597 19.866 195.073 19.39 195.073 18.774C195.073 18.172 194.597 17.696 193.953 17.696C193.323 17.696 192.861 18.172 192.861 18.774C192.861 19.39 193.323 19.866 193.953 19.866ZM193.071 28H194.835V20.944H193.071V28ZM199.007 20.16H200.253L201.933 18.088H199.889L199.007 20.16ZM199.847 28.112C201.989 28.112 203.529 26.572 203.529 24.472C203.529 22.372 201.989 20.832 199.847 20.832C197.705 20.832 196.165 22.372 196.165 24.472C196.165 26.572 197.705 28.112 199.847 28.112ZM199.847 26.586C198.699 26.586 197.943 25.732 197.943 24.472C197.943 23.212 198.699 22.358 199.847 22.358C200.981 22.358 201.751 23.212 201.751 24.472C201.751 25.732 200.981 26.586 199.847 26.586ZM204.856 28H206.62V24.906C206.62 23.324 207.25 22.4 208.328 22.4C209.154 22.4 209.672 22.974 209.672 23.8V28H211.436V23.38C211.436 21.84 210.4 20.832 208.86 20.832C207.866 20.832 207.068 21.322 206.62 22.008V20.944H204.856V28Z" fill="black"/>
</svg>
